<svg width="158" height="63" viewBox="0 0 158 63" fill="none" xmlns="http://www.w3.org/2000/svg">
<path fill-rule="evenodd" clip-rule="evenodd" d="M82.9633 52.7784V37.2669L66.2314 30.2819L75.0132 21.0906L63.5038 10.088L60.2397 16.8225L60.3649 10.3481L45.7793 15.3677L46.1549 23.8075L48.632 23.1138L51.2076 52.8941L61.4917 51.2658L61.4738 41.323L82.9633 52.7784Z" fill="#0B0000"/>
<path fill-rule="evenodd" clip-rule="evenodd" d="M48.5244 17.5341L57.3867 14.6919L57.9322 24.5287L64.4604 14.6534L70.8366 21.1952L61.9207 31.321L80.2712 39.1539V48.1622L58.9517 36.6682L58.9874 48.7113L53.4698 49.5206L51.1178 19.3935L48.6317 20.0872L48.5244 17.5341Z" fill="white"/>
<path fill-rule="evenodd" clip-rule="evenodd" d="M115.719 11.5707H106.061L105.784 13.276H95.6246L90.876 44.5592L102.466 46.5247L103.101 42.035L106.132 48.0566L107.975 44.2124L108.654 50.523L121.791 53.0183L115.719 11.5707Z" fill="#0B0000"/>
<path fill-rule="evenodd" clip-rule="evenodd" d="M108.601 14.4625H113.52L118.501 49.3105L111.239 48.1158L109.308 34.3288L106.58 41.9304L102.484 32.4308H102.44L100.821 43.443L94.0156 42.1617L98.0667 16.0714H104.953L106.67 26.1877L108.601 14.4625Z" fill="white"/>
<path fill-rule="evenodd" clip-rule="evenodd" d="M128.016 14.4229L142.548 17.8624L143.63 23.6431L144.802 18.4308L157.169 21.6584L145.294 60.206L136.181 57.1134L136.109 53.2499L127.363 51.93L130.314 23.6431L128.123 23.1132L128.016 14.4229Z" fill="#0B0000"/>
<path fill-rule="evenodd" clip-rule="evenodd" d="M130.601 18.0354L140.071 20.0876L143.264 36.3699L146.528 21.7736L153.736 23.4982L143.586 56.6216L138.542 54.9933L138.104 34.9729L135.564 50.417L130.064 49.4824L132.533 21.4364L130.458 20.839L130.601 18.0354Z" fill="white"/>
<path fill-rule="evenodd" clip-rule="evenodd" d="M126.621 47.4783C123.482 48.75 120.147 48.6055 117.464 47.064C114.978 45.6477 113.243 43.1909 112.572 40.1561C111.231 34.1056 114.942 27.1976 120.844 24.7601C124.019 23.4691 127.381 23.6232 130.082 25.1744C132.541 26.581 134.258 28.98 134.911 31.9282C136.279 38.0654 132.568 45.0407 126.621 47.4783Z" fill="#0B0000"/>
<path fill-rule="evenodd" clip-rule="evenodd" d="M132.611 32.4881C131.538 27.6323 126.727 25.1948 121.79 27.1988C117.006 29.1739 113.867 34.7522 114.949 39.608C116.058 44.618 120.825 47.0459 125.761 45.0419C130.581 43.0764 133.72 37.4595 132.611 32.4881Z" fill="white"/>
<path fill-rule="evenodd" clip-rule="evenodd" d="M129.026 33.3441C128.927 36.0225 126.763 38.0457 124.116 37.9301C121.514 37.8145 119.511 35.6178 119.609 32.9394C119.707 30.4248 121.863 28.4016 124.51 28.5172C127.121 28.6328 129.124 30.8295 129.026 33.3441Z" fill="#0B0000"/>
<path fill-rule="evenodd" clip-rule="evenodd" d="M125.662 28.6328C124.079 28.5654 122.756 29.7408 122.693 31.2534C122.639 32.766 123.874 34.0571 125.456 34.1245C127.039 34.1919 128.363 33.0165 128.425 31.5039C128.479 29.9913 127.245 28.7003 125.662 28.6328Z" fill="white"/>
<path fill-rule="evenodd" clip-rule="evenodd" d="M46.5018 50.8517C43.2914 52.3162 39.8126 52.3162 36.9599 50.8421C34.3218 49.474 32.417 47.0076 31.6032 43.8764C29.9756 37.6428 33.5617 30.2917 39.607 27.4881C42.8532 26.014 46.3587 26.014 49.2294 27.5073C51.8406 28.8562 53.7186 31.2744 54.5145 34.3093C56.1779 40.6295 52.5829 48.0577 46.5018 50.8517Z" fill="#0B0000"/>
<path fill-rule="evenodd" clip-rule="evenodd" d="M52.2167 34.6943C50.8931 29.6459 45.76 27.3143 40.6626 29.6459C35.7173 31.9389 32.6499 37.9315 33.9735 42.98C35.3328 48.1923 40.4301 50.5142 45.5275 48.1923C50.5086 45.8993 53.576 39.8584 52.2167 34.6943Z" fill="white"/>
<path fill-rule="evenodd" clip-rule="evenodd" d="M48.7654 35.6572C48.7654 38.3356 46.6817 40.4455 44.0346 40.4455C41.4323 40.4455 39.3486 38.3356 39.3486 35.6572C39.3486 33.1426 41.4323 31.023 44.0793 31.023C46.6817 31.023 48.7654 33.1329 48.7654 35.6572Z" fill="#0B0000"/>
<path fill-rule="evenodd" clip-rule="evenodd" d="M45.232 31.09C43.6491 31.09 42.3613 32.3232 42.3613 33.8358C42.3613 35.3484 43.6401 36.5816 45.232 36.5816C46.8148 36.5816 48.1026 35.3484 48.1026 33.8358C48.1026 32.3232 46.8148 31.09 45.232 31.09Z" fill="white"/>
<path fill-rule="evenodd" clip-rule="evenodd" d="M28.7867 41.5449C35.6905 36.0821 38.9815 27.8254 36.4864 21.6304C35.3954 18.9231 33.4817 16.6879 31.1387 15.2812C29.4932 14.1058 27.5347 13.364 25.4779 13.1135C20.4342 12.1597 14.3799 13.1424 8.42407 15.869C6.2331 16.8709 4.18521 18.0271 2.343 19.2892L0 20.8789L1.40401 23.4417L5.76807 31.3901C5.76807 31.3901 7.10949 33.8373 7.11843 33.8277L9.48826 32.5848L9.81914 32.4114L20.6667 58.5112L21.713 61.0162L24.1454 60.178L30.0208 58.1548L32.5963 57.2684L31.9167 54.4551L28.7867 41.5449Z" fill="black"/>
<path fill-rule="evenodd" clip-rule="evenodd" d="M33.8644 22.8527C32.997 20.7042 31.5035 19.0181 29.554 17.8331C28.1411 16.8215 26.5045 16.3205 24.9753 16.1374C20.6291 15.3185 15.2188 16.0892 9.52224 18.6906C7.49224 19.6155 5.59638 20.6753 3.85254 21.8699L8.2166 29.8184C9.33445 29.2307 10.5417 28.6045 11.1945 28.2287L23.2583 57.2382L29.1337 55.2149L25.5119 40.2044C32.4604 35.6087 35.966 28.0649 33.8644 22.8527Z" fill="white"/>
<path fill-rule="evenodd" clip-rule="evenodd" d="M95.5814 30.4842L91.4498 26.4762L93.4798 24.1543L95.3042 22.0636L93.6229 19.8381C90.3409 15.4833 85.0915 13.7394 79.5828 15.175C71.9189 17.1597 67.5995 24.2699 69.3076 32.0643C69.9962 35.2051 71.8205 37.8931 74.4586 39.637C77.6064 41.7277 81.5681 42.2961 85.6013 41.2459C89.858 40.138 92.988 38.2785 95.7334 35.2244L97.9333 32.7772L95.5814 30.4842Z" fill="#0B0000"/>
<path fill-rule="evenodd" clip-rule="evenodd" d="M89.2292 28.586C88.1919 29.9059 87.0025 31.1103 84.892 31.6594C84.1855 31.8425 83.2286 32.0159 82.6205 31.9003L91.5007 21.7166C88.9967 18.3927 84.8831 16.8512 80.2239 18.0651C74.429 19.5681 70.512 24.7708 71.9608 31.3993C73.1233 36.7272 78.5963 39.9933 84.9457 38.3458C88.791 37.3438 91.4649 35.7445 93.8616 33.0757L89.2292 28.586Z" fill="white"/>
<path fill-rule="evenodd" clip-rule="evenodd" d="M75.3604 13.4979L86.2347 0L92.2532 9.68267L78.5082 17.6408L75.3604 13.4979Z" fill="#0B0000"/>
<path fill-rule="evenodd" clip-rule="evenodd" d="M85.7687 4.29662L88.9524 8.95971L79.8576 13.8155L79.2227 12.7846L85.7687 4.29662Z" fill="white"/>
<path fill-rule="evenodd" clip-rule="evenodd" d="M79.0289 28.7392C78.376 27.4579 78.5012 25.8104 79.476 24.6639C80.415 23.5559 81.8458 23.2379 83.071 23.7486L79.0289 28.7392ZM79.476 24.6639C78.5102 25.8104 78.376 27.4579 79.0289 28.7392L83.071 23.7486C81.8458 23.2379 80.4061 23.5559 79.476 24.6639ZM85.3156 22.9971C83.2409 20.9642 80.0394 21.128 78.1525 23.3632C76.2656 25.5984 76.4176 29.0475 78.4923 31.0804C78.6622 31.2538 78.85 31.3984 79.0378 31.5333L85.6823 23.3825C85.5571 23.2476 85.4408 23.1223 85.3156 22.9971ZM79.0289 28.7392C78.376 27.4579 78.5012 25.8104 79.476 24.6639C80.415 23.5559 81.8458 23.2379 83.071 23.7486L79.0289 28.7392Z" fill="black"/>
<path fill-rule="evenodd" clip-rule="evenodd" d="M29.2968 27.8149C28.7781 24.7415 25.0669 23.0169 21.3467 25.1654L22.2767 28.6916L23.7433 33.8943L24.414 36.2644C27.2042 34.3664 30.0122 32.0733 29.2968 27.8149ZM25.6034 32.5165C25.201 31.0906 24.3336 28.0172 24.3336 28.0172C24.3425 28.0365 24.1547 27.3524 23.958 26.5913C24.7449 26.4372 25.4961 26.5142 26.1221 26.8418C26.4709 27.0249 27.07 27.4392 27.1952 28.2292C27.4904 29.9923 26.927 31.2544 25.6034 32.5165Z" fill="black"/>
<path fill-rule="evenodd" clip-rule="evenodd" d="M30.8906 62.8946C30.8996 62.9235 30.9085 62.9428 30.9174 62.9717C30.9174 62.9813 30.9264 62.991 30.9264 63.0006C30.9175 62.9621 30.8996 62.9331 30.8906 62.8946Z" fill="black"/>
<path fill-rule="evenodd" clip-rule="evenodd" d="M147.912 56.7093H150.586V57.1332H149.477V60.2645H149.021V57.1332H147.912V56.7093Z" fill="black"/>
<path fill-rule="evenodd" clip-rule="evenodd" d="M150.982 60.2645V56.7093H151.626L152.574 59.7153L153.513 56.7093H154.148V60.2645H153.728V58.1641C153.728 58.0871 153.728 57.9714 153.737 57.8077C153.737 57.6439 153.737 57.4608 153.737 57.2681L152.798 60.2645H152.36L151.412 57.2681V57.3741C151.412 57.4608 151.412 57.5957 151.421 57.7691C151.421 57.9425 151.43 58.0774 151.43 58.1641V60.2645H150.982Z" fill="black"/>
</svg>
